G04 #@! TF.GenerationSoftware,KiCad,Pcbnew,(5.0.1-3-g963ef8bb5)*
G04 #@! TF.CreationDate,2018-12-19T18:05:48-08:00*
G04 #@! TF.ProjectId,snacky44,736E61636B7934342E6B696361645F70,rev?*
G04 #@! TF.SameCoordinates,Original*
G04 #@! TF.FileFunction,Copper,L1,Top,Signal*
G04 #@! TF.FilePolarity,Positive*
%FSLAX46Y46*%
G04 Gerber Fmt 4.6, Leading zero omitted, Abs format (unit mm)*
G04 Created by KiCad (PCBNEW (5.0.1-3-g963ef8bb5)) date Wednesday, December 19, 2018 at 06:05:48 PM*
%MOMM*%
%LPD*%
G01*
G04 APERTURE LIST*
G04 #@! TA.AperFunction,ComponentPad*
%ADD10R,2.000000X2.000000*%
G04 #@! TD*
G04 #@! TA.AperFunction,ComponentPad*
%ADD11O,2.000000X2.000000*%
G04 #@! TD*
G04 #@! TA.AperFunction,ComponentPad*
%ADD12C,2.286000*%
G04 #@! TD*
G04 #@! TA.AperFunction,ComponentPad*
%ADD13C,1.900000*%
G04 #@! TD*
G04 #@! TA.AperFunction,ComponentPad*
%ADD14C,1.600000*%
G04 #@! TD*
G04 #@! TA.AperFunction,ComponentPad*
%ADD15R,1.600000X1.600000*%
G04 #@! TD*
G04 #@! TA.AperFunction,Conductor*
%ADD16C,0.250000*%
G04 #@! TD*
G04 APERTURE END LIST*
D10*
G04 #@! TO.P,D1,1*
G04 #@! TO.N,Net-(D1-Pad1)*
X142240000Y-140970000D03*
D11*
G04 #@! TO.P,D1,2*
G04 #@! TO.N,Net-(D1-Pad2)*
X147320000Y-140970000D03*
G04 #@! TD*
D10*
G04 #@! TO.P,D2,1*
G04 #@! TO.N,Net-(D2-Pad1)*
X161290000Y-140970000D03*
D11*
G04 #@! TO.P,D2,2*
G04 #@! TO.N,Net-(D2-Pad2)*
X166370000Y-140970000D03*
G04 #@! TD*
G04 #@! TO.P,D3,2*
G04 #@! TO.N,Net-(D2-Pad2)*
X166370000Y-160020000D03*
D10*
G04 #@! TO.P,D3,1*
G04 #@! TO.N,Net-(D3-Pad1)*
X161290000Y-160020000D03*
G04 #@! TD*
D11*
G04 #@! TO.P,D4,2*
G04 #@! TO.N,Net-(D1-Pad2)*
X147320000Y-160020000D03*
D10*
G04 #@! TO.P,D4,1*
G04 #@! TO.N,Net-(D4-Pad1)*
X142240000Y-160020000D03*
G04 #@! TD*
D12*
G04 #@! TO.P,K1,2*
G04 #@! TO.N,Net-(D1-Pad1)*
X140970000Y-129540000D03*
G04 #@! TO.P,K1,1*
G04 #@! TO.N,Net-(K1-Pad1)*
X147320000Y-127000000D03*
G04 #@! TD*
G04 #@! TO.P,K2,2*
G04 #@! TO.N,Net-(D2-Pad1)*
X160020000Y-129540000D03*
G04 #@! TO.P,K2,1*
G04 #@! TO.N,Net-(K1-Pad1)*
X166370000Y-127000000D03*
G04 #@! TD*
G04 #@! TO.P,K3,1*
G04 #@! TO.N,Net-(K3-Pad1)*
X166370000Y-146050000D03*
G04 #@! TO.P,K3,2*
G04 #@! TO.N,Net-(D3-Pad1)*
X160020000Y-148590000D03*
G04 #@! TD*
G04 #@! TO.P,K4,1*
G04 #@! TO.N,Net-(K3-Pad1)*
X147320000Y-146050000D03*
G04 #@! TO.P,K4,2*
G04 #@! TO.N,Net-(D4-Pad1)*
X140970000Y-148590000D03*
G04 #@! TD*
D13*
G04 #@! TO.P,U1,52*
G04 #@! TO.N,Net-(U1-Pad52)*
X143510000Y-113030000D03*
X147320000Y-113030000D03*
D14*
G04 #@! TO.P,U1,51*
G04 #@! TO.N,Net-(U1-Pad51)*
X152400000Y-110490000D03*
G04 #@! TO.P,U1,50*
G04 #@! TO.N,Net-(U1-Pad50)*
X154940000Y-110490000D03*
G04 #@! TO.P,U1,49*
G04 #@! TO.N,Net-(U1-Pad49)*
X157480000Y-110490000D03*
G04 #@! TO.P,U1,48*
G04 #@! TO.N,Net-(U1-Pad48)*
X160020000Y-110490000D03*
G04 #@! TO.P,U1,47*
G04 #@! TO.N,Net-(U1-Pad47)*
X162560000Y-110490000D03*
G04 #@! TO.P,U1,46*
G04 #@! TO.N,Net-(U1-Pad46)*
X165100000Y-110490000D03*
G04 #@! TO.P,U1,45*
G04 #@! TO.N,Net-(U1-Pad45)*
X167640000Y-110490000D03*
G04 #@! TO.P,U1,44*
G04 #@! TO.N,Net-(U1-Pad44)*
X167640000Y-113030000D03*
G04 #@! TO.P,U1,43*
G04 #@! TO.N,Net-(U1-Pad43)*
X165100000Y-113030000D03*
G04 #@! TO.P,U1,42*
G04 #@! TO.N,Net-(U1-Pad42)*
X162560000Y-113030000D03*
G04 #@! TO.P,U1,41*
G04 #@! TO.N,Net-(U1-Pad41)*
X160020000Y-113030000D03*
G04 #@! TO.P,U1,40*
G04 #@! TO.N,Net-(U1-Pad40)*
X157480000Y-113030000D03*
G04 #@! TO.P,U1,39*
G04 #@! TO.N,Net-(U1-Pad39)*
X154940000Y-113030000D03*
G04 #@! TO.P,U1,38*
G04 #@! TO.N,Net-(U1-Pad38)*
X152400000Y-113030000D03*
D15*
G04 #@! TO.P,U1,1*
G04 #@! TO.N,Net-(U1-Pad1)*
X137160000Y-120650000D03*
D14*
G04 #@! TO.P,U1,2*
G04 #@! TO.N,N/C*
X139700000Y-120650000D03*
G04 #@! TO.P,U1,3*
G04 #@! TO.N,Net-(D2-Pad2)*
X142240000Y-120650000D03*
G04 #@! TO.P,U1,4*
G04 #@! TO.N,Net-(D1-Pad2)*
X144780000Y-120650000D03*
G04 #@! TO.P,U1,5*
G04 #@! TO.N,Net-(U1-Pad5)*
X147320000Y-120650000D03*
G04 #@! TO.P,U1,6*
G04 #@! TO.N,Net-(U1-Pad6)*
X149860000Y-120650000D03*
G04 #@! TO.P,U1,7*
G04 #@! TO.N,Net-(U1-Pad7)*
X152400000Y-120650000D03*
G04 #@! TO.P,U1,8*
G04 #@! TO.N,Net-(U1-Pad8)*
X154940000Y-120650000D03*
G04 #@! TO.P,U1,9*
G04 #@! TO.N,Net-(U1-Pad9)*
X157480000Y-120650000D03*
G04 #@! TO.P,U1,10*
G04 #@! TO.N,Net-(U1-Pad10)*
X160020000Y-120650000D03*
G04 #@! TO.P,U1,11*
G04 #@! TO.N,Net-(U1-Pad11)*
X162560000Y-120650000D03*
G04 #@! TO.P,U1,12*
G04 #@! TO.N,Net-(U1-Pad12)*
X165100000Y-120650000D03*
G04 #@! TO.P,U1,13*
G04 #@! TO.N,Net-(U1-Pad13)*
X167640000Y-120650000D03*
G04 #@! TO.P,U1,37*
G04 #@! TO.N,Net-(U1-Pad37)*
X149860000Y-107950000D03*
G04 #@! TO.P,U1,36*
G04 #@! TO.N,Net-(U1-Pad36)*
X147320000Y-107950000D03*
G04 #@! TO.P,U1,35*
G04 #@! TO.N,Net-(U1-Pad35)*
X144780000Y-107950000D03*
G04 #@! TO.P,U1,34*
G04 #@! TO.N,Net-(U1-Pad34)*
X139700000Y-107950000D03*
G04 #@! TO.P,U1,33*
G04 #@! TO.N,Net-(U1-Pad33)*
X137160000Y-105410000D03*
G04 #@! TO.P,U1,32*
G04 #@! TO.N,Net-(U1-Pad32)*
X139700000Y-105410000D03*
G04 #@! TO.P,U1,31*
G04 #@! TO.N,Net-(U1-Pad31)*
X142240000Y-105410000D03*
G04 #@! TO.P,U1,30*
G04 #@! TO.N,Net-(U1-Pad30)*
X144780000Y-105410000D03*
G04 #@! TO.P,U1,29*
G04 #@! TO.N,Net-(U1-Pad29)*
X147320000Y-105410000D03*
G04 #@! TO.P,U1,28*
G04 #@! TO.N,Net-(U1-Pad28)*
X149860000Y-105410000D03*
G04 #@! TO.P,U1,27*
G04 #@! TO.N,Net-(U1-Pad27)*
X152400000Y-105410000D03*
G04 #@! TO.P,U1,26*
G04 #@! TO.N,Net-(U1-Pad26)*
X154940000Y-105410000D03*
G04 #@! TO.P,U1,25*
G04 #@! TO.N,Net-(U1-Pad25)*
X157480000Y-105410000D03*
G04 #@! TO.P,U1,24*
G04 #@! TO.N,Net-(U1-Pad24)*
X160020000Y-105410000D03*
G04 #@! TO.P,U1,23*
G04 #@! TO.N,Net-(U1-Pad23)*
X162560000Y-105410000D03*
G04 #@! TO.P,U1,22*
G04 #@! TO.N,Net-(U1-Pad22)*
X165100000Y-105410000D03*
G04 #@! TO.P,U1,21*
G04 #@! TO.N,Net-(U1-Pad21)*
X167640000Y-105410000D03*
G04 #@! TO.P,U1,14*
G04 #@! TO.N,Net-(U1-Pad14)*
X170180000Y-120650000D03*
G04 #@! TO.P,U1,15*
G04 #@! TO.N,Net-(U1-Pad15)*
X170180000Y-118110000D03*
G04 #@! TO.P,U1,16*
G04 #@! TO.N,Net-(U1-Pad16)*
X170180000Y-115570000D03*
G04 #@! TO.P,U1,20*
G04 #@! TO.N,Net-(K3-Pad1)*
X170180000Y-105410000D03*
G04 #@! TO.P,U1,19*
G04 #@! TO.N,Net-(K1-Pad1)*
X170180000Y-107950000D03*
G04 #@! TO.P,U1,18*
G04 #@! TO.N,Net-(U1-Pad18)*
X170180000Y-110490000D03*
G04 #@! TO.P,U1,17*
G04 #@! TO.N,Net-(U1-Pad17)*
X170180000Y-113030000D03*
G04 #@! TD*
D16*
G04 #@! TO.N,Net-(D1-Pad1)*
X140990000Y-140970000D02*
X142240000Y-140970000D01*
X140970000Y-140950000D02*
X140990000Y-140970000D01*
X140970000Y-129540000D02*
X140970000Y-140950000D01*
G04 #@! TO.N,Net-(D1-Pad2)*
X147320000Y-158605787D02*
X147320000Y-160020000D01*
X147320000Y-150279100D02*
X147320000Y-158605787D01*
X145851999Y-142438001D02*
X145851999Y-148811099D01*
X145851999Y-148811099D02*
X147320000Y-150279100D01*
X147320000Y-140970000D02*
X145851999Y-142438001D01*
X142461099Y-128858457D02*
X142461099Y-136111099D01*
X146320001Y-139970001D02*
X147320000Y-140970000D01*
X141114999Y-127512357D02*
X142461099Y-128858457D01*
X141114999Y-120109999D02*
X141114999Y-127512357D01*
X141699999Y-119524999D02*
X141114999Y-120109999D01*
X143654999Y-119524999D02*
X141699999Y-119524999D01*
X142461099Y-136111099D02*
X146320001Y-139970001D01*
X144780000Y-120650000D02*
X143654999Y-119524999D01*
G04 #@! TO.N,Net-(K1-Pad1)*
X147320000Y-127000000D02*
X166370000Y-127000000D01*
X167512999Y-125857001D02*
X166370000Y-127000000D01*
X168765001Y-124604999D02*
X167512999Y-125857001D01*
X168765001Y-109364999D02*
X168765001Y-124604999D01*
X170180000Y-107950000D02*
X168765001Y-109364999D01*
G04 #@! TO.N,Net-(D2-Pad1)*
X160040000Y-140970000D02*
X161290000Y-140970000D01*
X160020000Y-140950000D02*
X160040000Y-140970000D01*
X160020000Y-129540000D02*
X160020000Y-140950000D01*
G04 #@! TO.N,Net-(D2-Pad2)*
X142240000Y-121781370D02*
X142240000Y-120650000D01*
X142240000Y-126200334D02*
X142240000Y-121781370D01*
X158334667Y-142295001D02*
X142240000Y-126200334D01*
X165044999Y-142295001D02*
X158334667Y-142295001D01*
X166370000Y-140970000D02*
X165044999Y-142295001D01*
X167369999Y-139970001D02*
X166370000Y-140970000D01*
X172269990Y-135070010D02*
X167369999Y-139970001D01*
X172269990Y-108136400D02*
X172269990Y-135070010D01*
X170668591Y-106535001D02*
X172269990Y-108136400D01*
X169639999Y-106535001D02*
X170668591Y-106535001D01*
X169054999Y-105950001D02*
X169639999Y-106535001D01*
X169054999Y-104869999D02*
X169054999Y-105950001D01*
X169639999Y-104284999D02*
X169054999Y-104869999D01*
X170720001Y-104284999D02*
X169639999Y-104284999D01*
X173170009Y-106735007D02*
X170720001Y-104284999D01*
X173170009Y-153219991D02*
X173170009Y-106735007D01*
X166370000Y-160020000D02*
X173170009Y-153219991D01*
G04 #@! TO.N,Net-(D3-Pad1)*
X160040000Y-160020000D02*
X161290000Y-160020000D01*
X160020000Y-160000000D02*
X160040000Y-160020000D01*
X160020000Y-148590000D02*
X160020000Y-160000000D01*
G04 #@! TO.N,Net-(D4-Pad1)*
X140990000Y-160020000D02*
X142240000Y-160020000D01*
X140970000Y-160000000D02*
X140990000Y-160020000D01*
X140970000Y-148590000D02*
X140970000Y-160000000D01*
G04 #@! TO.N,Net-(K3-Pad1)*
X147320000Y-146050000D02*
X166370000Y-146050000D01*
X170979999Y-106209999D02*
X170180000Y-105410000D01*
X172720000Y-139700000D02*
X172720000Y-107950000D01*
X172720000Y-107950000D02*
X170979999Y-106209999D01*
X166370000Y-146050000D02*
X172720000Y-139700000D01*
G04 #@! TD*
M02*
