M48
;DRILL file {KiCad (5.0.1-3-g963ef8bb5)} date Wednesday, December 19, 2018 at 06:01:55 PM
;FORMAT={-:-/ absolute / inch / decimal}
FMAT,2
INCH,TZ
T1C0.0197
T2C0.0394
T3C0.0433
T4C0.0590
%
G90
G05
M72
T1
X5.65Y-4.45
X5.8Y-4.45
T2
X6.35Y-5.55
X6.55Y-5.55
X5.6Y-5.55
X5.8Y-5.55
X5.6Y-6.3
X5.8Y-6.3
X6.35Y-6.3
X6.55Y-6.3
T3
X5.4Y-4.15
X5.4Y-4.75
X5.5Y-4.15
X5.5Y-4.25
X5.5Y-4.75
X5.6Y-4.15
X5.6Y-4.75
X5.7Y-4.15
X5.7Y-4.25
X5.7Y-4.75
X5.8Y-4.15
X5.8Y-4.25
X5.8Y-4.75
X5.9Y-4.15
X5.9Y-4.25
X5.9Y-4.75
X6.Y-4.15
X6.Y-4.35
X6.Y-4.45
X6.Y-4.75
X6.1Y-4.15
X6.1Y-4.35
X6.1Y-4.45
X6.1Y-4.75
X6.2Y-4.15
X6.2Y-4.35
X6.2Y-4.45
X6.2Y-4.75
X6.3Y-4.15
X6.3Y-4.35
X6.3Y-4.45
X6.3Y-4.75
X6.4Y-4.15
X6.4Y-4.35
X6.4Y-4.45
X6.4Y-4.75
X6.5Y-4.15
X6.5Y-4.35
X6.5Y-4.45
X6.5Y-4.75
X6.6Y-4.15
X6.6Y-4.35
X6.6Y-4.45
X6.6Y-4.75
X6.7Y-4.15
X6.7Y-4.25
X6.7Y-4.35
X6.7Y-4.45
X6.7Y-4.55
X6.7Y-4.65
X6.7Y-4.75
T4
X6.3Y-5.1
X6.55Y-5.
X5.55Y-5.1
X5.8Y-5.
X5.55Y-5.85
X5.8Y-5.75
X6.3Y-5.85
X6.55Y-5.75
T0
M30
