G04 #@! TF.GenerationSoftware,KiCad,Pcbnew,(5.0.1-3-g963ef8bb5)*
G04 #@! TF.CreationDate,2018-12-19T18:05:48-08:00*
G04 #@! TF.ProjectId,snacky44,736E61636B7934342E6B696361645F70,rev?*
G04 #@! TF.SameCoordinates,Original*
G04 #@! TF.FileFunction,Soldermask,Top*
G04 #@! TF.FilePolarity,Negative*
%FSLAX46Y46*%
G04 Gerber Fmt 4.6, Leading zero omitted, Abs format (unit mm)*
G04 Created by KiCad (PCBNEW (5.0.1-3-g963ef8bb5)) date Wednesday, December 19, 2018 at 06:05:48 PM*
%MOMM*%
%LPD*%
G01*
G04 APERTURE LIST*
%ADD10C,0.100000*%
G04 APERTURE END LIST*
D10*
G36*
X166566030Y-159034469D02*
X166566033Y-159034470D01*
X166566034Y-159034470D01*
X166754535Y-159091651D01*
X166754537Y-159091652D01*
X166928260Y-159184509D01*
X167080528Y-159309472D01*
X167205491Y-159461740D01*
X167298348Y-159635463D01*
X167355531Y-159823970D01*
X167374838Y-160020000D01*
X167355531Y-160216030D01*
X167298348Y-160404537D01*
X167205491Y-160578260D01*
X167080528Y-160730528D01*
X166928260Y-160855491D01*
X166928258Y-160855492D01*
X166754535Y-160948349D01*
X166566034Y-161005530D01*
X166566033Y-161005530D01*
X166566030Y-161005531D01*
X166419124Y-161020000D01*
X166320876Y-161020000D01*
X166173970Y-161005531D01*
X166173967Y-161005530D01*
X166173966Y-161005530D01*
X165985465Y-160948349D01*
X165811742Y-160855492D01*
X165811740Y-160855491D01*
X165659472Y-160730528D01*
X165534509Y-160578260D01*
X165441652Y-160404537D01*
X165384469Y-160216030D01*
X165365162Y-160020000D01*
X165384469Y-159823970D01*
X165441652Y-159635463D01*
X165534509Y-159461740D01*
X165659472Y-159309472D01*
X165811740Y-159184509D01*
X165985463Y-159091652D01*
X165985465Y-159091651D01*
X166173966Y-159034470D01*
X166173967Y-159034470D01*
X166173970Y-159034469D01*
X166320876Y-159020000D01*
X166419124Y-159020000D01*
X166566030Y-159034469D01*
X166566030Y-159034469D01*
G37*
G36*
X162290000Y-161020000D02*
X160290000Y-161020000D01*
X160290000Y-159020000D01*
X162290000Y-159020000D01*
X162290000Y-161020000D01*
X162290000Y-161020000D01*
G37*
G36*
X147516030Y-159034469D02*
X147516033Y-159034470D01*
X147516034Y-159034470D01*
X147704535Y-159091651D01*
X147704537Y-159091652D01*
X147878260Y-159184509D01*
X148030528Y-159309472D01*
X148155491Y-159461740D01*
X148248348Y-159635463D01*
X148305531Y-159823970D01*
X148324838Y-160020000D01*
X148305531Y-160216030D01*
X148248348Y-160404537D01*
X148155491Y-160578260D01*
X148030528Y-160730528D01*
X147878260Y-160855491D01*
X147878258Y-160855492D01*
X147704535Y-160948349D01*
X147516034Y-161005530D01*
X147516033Y-161005530D01*
X147516030Y-161005531D01*
X147369124Y-161020000D01*
X147270876Y-161020000D01*
X147123970Y-161005531D01*
X147123967Y-161005530D01*
X147123966Y-161005530D01*
X146935465Y-160948349D01*
X146761742Y-160855492D01*
X146761740Y-160855491D01*
X146609472Y-160730528D01*
X146484509Y-160578260D01*
X146391652Y-160404537D01*
X146334469Y-160216030D01*
X146315162Y-160020000D01*
X146334469Y-159823970D01*
X146391652Y-159635463D01*
X146484509Y-159461740D01*
X146609472Y-159309472D01*
X146761740Y-159184509D01*
X146935463Y-159091652D01*
X146935465Y-159091651D01*
X147123966Y-159034470D01*
X147123967Y-159034470D01*
X147123970Y-159034469D01*
X147270876Y-159020000D01*
X147369124Y-159020000D01*
X147516030Y-159034469D01*
X147516030Y-159034469D01*
G37*
G36*
X143240000Y-161020000D02*
X141240000Y-161020000D01*
X141240000Y-159020000D01*
X143240000Y-159020000D01*
X143240000Y-161020000D01*
X143240000Y-161020000D01*
G37*
G36*
X160353401Y-147490925D02*
X160561413Y-147577086D01*
X160748623Y-147702176D01*
X160907824Y-147861377D01*
X161032914Y-148048587D01*
X161119075Y-148256599D01*
X161163000Y-148477424D01*
X161163000Y-148702576D01*
X161119075Y-148923401D01*
X161032914Y-149131413D01*
X160907824Y-149318623D01*
X160748623Y-149477824D01*
X160561413Y-149602914D01*
X160353401Y-149689075D01*
X160132576Y-149733000D01*
X159907424Y-149733000D01*
X159686599Y-149689075D01*
X159478587Y-149602914D01*
X159291377Y-149477824D01*
X159132176Y-149318623D01*
X159007086Y-149131413D01*
X158920925Y-148923401D01*
X158877000Y-148702576D01*
X158877000Y-148477424D01*
X158920925Y-148256599D01*
X159007086Y-148048587D01*
X159132176Y-147861377D01*
X159291377Y-147702176D01*
X159478587Y-147577086D01*
X159686599Y-147490925D01*
X159907424Y-147447000D01*
X160132576Y-147447000D01*
X160353401Y-147490925D01*
X160353401Y-147490925D01*
G37*
G36*
X141303401Y-147490925D02*
X141511413Y-147577086D01*
X141698623Y-147702176D01*
X141857824Y-147861377D01*
X141982914Y-148048587D01*
X142069075Y-148256599D01*
X142113000Y-148477424D01*
X142113000Y-148702576D01*
X142069075Y-148923401D01*
X141982914Y-149131413D01*
X141857824Y-149318623D01*
X141698623Y-149477824D01*
X141511413Y-149602914D01*
X141303401Y-149689075D01*
X141082576Y-149733000D01*
X140857424Y-149733000D01*
X140636599Y-149689075D01*
X140428587Y-149602914D01*
X140241377Y-149477824D01*
X140082176Y-149318623D01*
X139957086Y-149131413D01*
X139870925Y-148923401D01*
X139827000Y-148702576D01*
X139827000Y-148477424D01*
X139870925Y-148256599D01*
X139957086Y-148048587D01*
X140082176Y-147861377D01*
X140241377Y-147702176D01*
X140428587Y-147577086D01*
X140636599Y-147490925D01*
X140857424Y-147447000D01*
X141082576Y-147447000D01*
X141303401Y-147490925D01*
X141303401Y-147490925D01*
G37*
G36*
X166703401Y-144950925D02*
X166911413Y-145037086D01*
X167098623Y-145162176D01*
X167257824Y-145321377D01*
X167382914Y-145508587D01*
X167469075Y-145716599D01*
X167513000Y-145937424D01*
X167513000Y-146162576D01*
X167469075Y-146383401D01*
X167382914Y-146591413D01*
X167257824Y-146778623D01*
X167098623Y-146937824D01*
X166911413Y-147062914D01*
X166703401Y-147149075D01*
X166482576Y-147193000D01*
X166257424Y-147193000D01*
X166036599Y-147149075D01*
X165828587Y-147062914D01*
X165641377Y-146937824D01*
X165482176Y-146778623D01*
X165357086Y-146591413D01*
X165270925Y-146383401D01*
X165227000Y-146162576D01*
X165227000Y-145937424D01*
X165270925Y-145716599D01*
X165357086Y-145508587D01*
X165482176Y-145321377D01*
X165641377Y-145162176D01*
X165828587Y-145037086D01*
X166036599Y-144950925D01*
X166257424Y-144907000D01*
X166482576Y-144907000D01*
X166703401Y-144950925D01*
X166703401Y-144950925D01*
G37*
G36*
X147653401Y-144950925D02*
X147861413Y-145037086D01*
X148048623Y-145162176D01*
X148207824Y-145321377D01*
X148332914Y-145508587D01*
X148419075Y-145716599D01*
X148463000Y-145937424D01*
X148463000Y-146162576D01*
X148419075Y-146383401D01*
X148332914Y-146591413D01*
X148207824Y-146778623D01*
X148048623Y-146937824D01*
X147861413Y-147062914D01*
X147653401Y-147149075D01*
X147432576Y-147193000D01*
X147207424Y-147193000D01*
X146986599Y-147149075D01*
X146778587Y-147062914D01*
X146591377Y-146937824D01*
X146432176Y-146778623D01*
X146307086Y-146591413D01*
X146220925Y-146383401D01*
X146177000Y-146162576D01*
X146177000Y-145937424D01*
X146220925Y-145716599D01*
X146307086Y-145508587D01*
X146432176Y-145321377D01*
X146591377Y-145162176D01*
X146778587Y-145037086D01*
X146986599Y-144950925D01*
X147207424Y-144907000D01*
X147432576Y-144907000D01*
X147653401Y-144950925D01*
X147653401Y-144950925D01*
G37*
G36*
X143240000Y-141970000D02*
X141240000Y-141970000D01*
X141240000Y-139970000D01*
X143240000Y-139970000D01*
X143240000Y-141970000D01*
X143240000Y-141970000D01*
G37*
G36*
X166566030Y-139984469D02*
X166566033Y-139984470D01*
X166566034Y-139984470D01*
X166754535Y-140041651D01*
X166754537Y-140041652D01*
X166928260Y-140134509D01*
X167080528Y-140259472D01*
X167205491Y-140411740D01*
X167298348Y-140585463D01*
X167355531Y-140773970D01*
X167374838Y-140970000D01*
X167355531Y-141166030D01*
X167298348Y-141354537D01*
X167205491Y-141528260D01*
X167080528Y-141680528D01*
X166928260Y-141805491D01*
X166928258Y-141805492D01*
X166754535Y-141898349D01*
X166566034Y-141955530D01*
X166566033Y-141955530D01*
X166566030Y-141955531D01*
X166419124Y-141970000D01*
X166320876Y-141970000D01*
X166173970Y-141955531D01*
X166173967Y-141955530D01*
X166173966Y-141955530D01*
X165985465Y-141898349D01*
X165811742Y-141805492D01*
X165811740Y-141805491D01*
X165659472Y-141680528D01*
X165534509Y-141528260D01*
X165441652Y-141354537D01*
X165384469Y-141166030D01*
X165365162Y-140970000D01*
X165384469Y-140773970D01*
X165441652Y-140585463D01*
X165534509Y-140411740D01*
X165659472Y-140259472D01*
X165811740Y-140134509D01*
X165985463Y-140041652D01*
X165985465Y-140041651D01*
X166173966Y-139984470D01*
X166173967Y-139984470D01*
X166173970Y-139984469D01*
X166320876Y-139970000D01*
X166419124Y-139970000D01*
X166566030Y-139984469D01*
X166566030Y-139984469D01*
G37*
G36*
X162290000Y-141970000D02*
X160290000Y-141970000D01*
X160290000Y-139970000D01*
X162290000Y-139970000D01*
X162290000Y-141970000D01*
X162290000Y-141970000D01*
G37*
G36*
X147516030Y-139984469D02*
X147516033Y-139984470D01*
X147516034Y-139984470D01*
X147704535Y-140041651D01*
X147704537Y-140041652D01*
X147878260Y-140134509D01*
X148030528Y-140259472D01*
X148155491Y-140411740D01*
X148248348Y-140585463D01*
X148305531Y-140773970D01*
X148324838Y-140970000D01*
X148305531Y-141166030D01*
X148248348Y-141354537D01*
X148155491Y-141528260D01*
X148030528Y-141680528D01*
X147878260Y-141805491D01*
X147878258Y-141805492D01*
X147704535Y-141898349D01*
X147516034Y-141955530D01*
X147516033Y-141955530D01*
X147516030Y-141955531D01*
X147369124Y-141970000D01*
X147270876Y-141970000D01*
X147123970Y-141955531D01*
X147123967Y-141955530D01*
X147123966Y-141955530D01*
X146935465Y-141898349D01*
X146761742Y-141805492D01*
X146761740Y-141805491D01*
X146609472Y-141680528D01*
X146484509Y-141528260D01*
X146391652Y-141354537D01*
X146334469Y-141166030D01*
X146315162Y-140970000D01*
X146334469Y-140773970D01*
X146391652Y-140585463D01*
X146484509Y-140411740D01*
X146609472Y-140259472D01*
X146761740Y-140134509D01*
X146935463Y-140041652D01*
X146935465Y-140041651D01*
X147123966Y-139984470D01*
X147123967Y-139984470D01*
X147123970Y-139984469D01*
X147270876Y-139970000D01*
X147369124Y-139970000D01*
X147516030Y-139984469D01*
X147516030Y-139984469D01*
G37*
G36*
X141303401Y-128440925D02*
X141511413Y-128527086D01*
X141698623Y-128652176D01*
X141857824Y-128811377D01*
X141982914Y-128998587D01*
X142069075Y-129206599D01*
X142113000Y-129427424D01*
X142113000Y-129652576D01*
X142069075Y-129873401D01*
X141982914Y-130081413D01*
X141857824Y-130268623D01*
X141698623Y-130427824D01*
X141511413Y-130552914D01*
X141303401Y-130639075D01*
X141082576Y-130683000D01*
X140857424Y-130683000D01*
X140636599Y-130639075D01*
X140428587Y-130552914D01*
X140241377Y-130427824D01*
X140082176Y-130268623D01*
X139957086Y-130081413D01*
X139870925Y-129873401D01*
X139827000Y-129652576D01*
X139827000Y-129427424D01*
X139870925Y-129206599D01*
X139957086Y-128998587D01*
X140082176Y-128811377D01*
X140241377Y-128652176D01*
X140428587Y-128527086D01*
X140636599Y-128440925D01*
X140857424Y-128397000D01*
X141082576Y-128397000D01*
X141303401Y-128440925D01*
X141303401Y-128440925D01*
G37*
G36*
X160353401Y-128440925D02*
X160561413Y-128527086D01*
X160748623Y-128652176D01*
X160907824Y-128811377D01*
X161032914Y-128998587D01*
X161119075Y-129206599D01*
X161163000Y-129427424D01*
X161163000Y-129652576D01*
X161119075Y-129873401D01*
X161032914Y-130081413D01*
X160907824Y-130268623D01*
X160748623Y-130427824D01*
X160561413Y-130552914D01*
X160353401Y-130639075D01*
X160132576Y-130683000D01*
X159907424Y-130683000D01*
X159686599Y-130639075D01*
X159478587Y-130552914D01*
X159291377Y-130427824D01*
X159132176Y-130268623D01*
X159007086Y-130081413D01*
X158920925Y-129873401D01*
X158877000Y-129652576D01*
X158877000Y-129427424D01*
X158920925Y-129206599D01*
X159007086Y-128998587D01*
X159132176Y-128811377D01*
X159291377Y-128652176D01*
X159478587Y-128527086D01*
X159686599Y-128440925D01*
X159907424Y-128397000D01*
X160132576Y-128397000D01*
X160353401Y-128440925D01*
X160353401Y-128440925D01*
G37*
G36*
X166703401Y-125900925D02*
X166911413Y-125987086D01*
X167098623Y-126112176D01*
X167257824Y-126271377D01*
X167382914Y-126458587D01*
X167469075Y-126666599D01*
X167513000Y-126887424D01*
X167513000Y-127112576D01*
X167469075Y-127333401D01*
X167382914Y-127541413D01*
X167257824Y-127728623D01*
X167098623Y-127887824D01*
X166911413Y-128012914D01*
X166703401Y-128099075D01*
X166482576Y-128143000D01*
X166257424Y-128143000D01*
X166036599Y-128099075D01*
X165828587Y-128012914D01*
X165641377Y-127887824D01*
X165482176Y-127728623D01*
X165357086Y-127541413D01*
X165270925Y-127333401D01*
X165227000Y-127112576D01*
X165227000Y-126887424D01*
X165270925Y-126666599D01*
X165357086Y-126458587D01*
X165482176Y-126271377D01*
X165641377Y-126112176D01*
X165828587Y-125987086D01*
X166036599Y-125900925D01*
X166257424Y-125857000D01*
X166482576Y-125857000D01*
X166703401Y-125900925D01*
X166703401Y-125900925D01*
G37*
G36*
X147653401Y-125900925D02*
X147861413Y-125987086D01*
X148048623Y-126112176D01*
X148207824Y-126271377D01*
X148332914Y-126458587D01*
X148419075Y-126666599D01*
X148463000Y-126887424D01*
X148463000Y-127112576D01*
X148419075Y-127333401D01*
X148332914Y-127541413D01*
X148207824Y-127728623D01*
X148048623Y-127887824D01*
X147861413Y-128012914D01*
X147653401Y-128099075D01*
X147432576Y-128143000D01*
X147207424Y-128143000D01*
X146986599Y-128099075D01*
X146778587Y-128012914D01*
X146591377Y-127887824D01*
X146432176Y-127728623D01*
X146307086Y-127541413D01*
X146220925Y-127333401D01*
X146177000Y-127112576D01*
X146177000Y-126887424D01*
X146220925Y-126666599D01*
X146307086Y-126458587D01*
X146432176Y-126271377D01*
X146591377Y-126112176D01*
X146778587Y-125987086D01*
X146986599Y-125900925D01*
X147207424Y-125857000D01*
X147432576Y-125857000D01*
X147653401Y-125900925D01*
X147653401Y-125900925D01*
G37*
G36*
X167873352Y-119880743D02*
X168018941Y-119941048D01*
X168149973Y-120028601D01*
X168261399Y-120140027D01*
X168348952Y-120271059D01*
X168409257Y-120416648D01*
X168440000Y-120571205D01*
X168440000Y-120728795D01*
X168409257Y-120883352D01*
X168348952Y-121028941D01*
X168261399Y-121159973D01*
X168149973Y-121271399D01*
X168018941Y-121358952D01*
X167873352Y-121419257D01*
X167718795Y-121450000D01*
X167561205Y-121450000D01*
X167406648Y-121419257D01*
X167261059Y-121358952D01*
X167130027Y-121271399D01*
X167018601Y-121159973D01*
X166931048Y-121028941D01*
X166870743Y-120883352D01*
X166840000Y-120728795D01*
X166840000Y-120571205D01*
X166870743Y-120416648D01*
X166931048Y-120271059D01*
X167018601Y-120140027D01*
X167130027Y-120028601D01*
X167261059Y-119941048D01*
X167406648Y-119880743D01*
X167561205Y-119850000D01*
X167718795Y-119850000D01*
X167873352Y-119880743D01*
X167873352Y-119880743D01*
G37*
G36*
X137960000Y-121450000D02*
X136360000Y-121450000D01*
X136360000Y-119850000D01*
X137960000Y-119850000D01*
X137960000Y-121450000D01*
X137960000Y-121450000D01*
G37*
G36*
X170413352Y-119880743D02*
X170558941Y-119941048D01*
X170689973Y-120028601D01*
X170801399Y-120140027D01*
X170888952Y-120271059D01*
X170949257Y-120416648D01*
X170980000Y-120571205D01*
X170980000Y-120728795D01*
X170949257Y-120883352D01*
X170888952Y-121028941D01*
X170801399Y-121159973D01*
X170689973Y-121271399D01*
X170558941Y-121358952D01*
X170413352Y-121419257D01*
X170258795Y-121450000D01*
X170101205Y-121450000D01*
X169946648Y-121419257D01*
X169801059Y-121358952D01*
X169670027Y-121271399D01*
X169558601Y-121159973D01*
X169471048Y-121028941D01*
X169410743Y-120883352D01*
X169380000Y-120728795D01*
X169380000Y-120571205D01*
X169410743Y-120416648D01*
X169471048Y-120271059D01*
X169558601Y-120140027D01*
X169670027Y-120028601D01*
X169801059Y-119941048D01*
X169946648Y-119880743D01*
X170101205Y-119850000D01*
X170258795Y-119850000D01*
X170413352Y-119880743D01*
X170413352Y-119880743D01*
G37*
G36*
X165333352Y-119880743D02*
X165478941Y-119941048D01*
X165609973Y-120028601D01*
X165721399Y-120140027D01*
X165808952Y-120271059D01*
X165869257Y-120416648D01*
X165900000Y-120571205D01*
X165900000Y-120728795D01*
X165869257Y-120883352D01*
X165808952Y-121028941D01*
X165721399Y-121159973D01*
X165609973Y-121271399D01*
X165478941Y-121358952D01*
X165333352Y-121419257D01*
X165178795Y-121450000D01*
X165021205Y-121450000D01*
X164866648Y-121419257D01*
X164721059Y-121358952D01*
X164590027Y-121271399D01*
X164478601Y-121159973D01*
X164391048Y-121028941D01*
X164330743Y-120883352D01*
X164300000Y-120728795D01*
X164300000Y-120571205D01*
X164330743Y-120416648D01*
X164391048Y-120271059D01*
X164478601Y-120140027D01*
X164590027Y-120028601D01*
X164721059Y-119941048D01*
X164866648Y-119880743D01*
X165021205Y-119850000D01*
X165178795Y-119850000D01*
X165333352Y-119880743D01*
X165333352Y-119880743D01*
G37*
G36*
X162793352Y-119880743D02*
X162938941Y-119941048D01*
X163069973Y-120028601D01*
X163181399Y-120140027D01*
X163268952Y-120271059D01*
X163329257Y-120416648D01*
X163360000Y-120571205D01*
X163360000Y-120728795D01*
X163329257Y-120883352D01*
X163268952Y-121028941D01*
X163181399Y-121159973D01*
X163069973Y-121271399D01*
X162938941Y-121358952D01*
X162793352Y-121419257D01*
X162638795Y-121450000D01*
X162481205Y-121450000D01*
X162326648Y-121419257D01*
X162181059Y-121358952D01*
X162050027Y-121271399D01*
X161938601Y-121159973D01*
X161851048Y-121028941D01*
X161790743Y-120883352D01*
X161760000Y-120728795D01*
X161760000Y-120571205D01*
X161790743Y-120416648D01*
X161851048Y-120271059D01*
X161938601Y-120140027D01*
X162050027Y-120028601D01*
X162181059Y-119941048D01*
X162326648Y-119880743D01*
X162481205Y-119850000D01*
X162638795Y-119850000D01*
X162793352Y-119880743D01*
X162793352Y-119880743D01*
G37*
G36*
X160253352Y-119880743D02*
X160398941Y-119941048D01*
X160529973Y-120028601D01*
X160641399Y-120140027D01*
X160728952Y-120271059D01*
X160789257Y-120416648D01*
X160820000Y-120571205D01*
X160820000Y-120728795D01*
X160789257Y-120883352D01*
X160728952Y-121028941D01*
X160641399Y-121159973D01*
X160529973Y-121271399D01*
X160398941Y-121358952D01*
X160253352Y-121419257D01*
X160098795Y-121450000D01*
X159941205Y-121450000D01*
X159786648Y-121419257D01*
X159641059Y-121358952D01*
X159510027Y-121271399D01*
X159398601Y-121159973D01*
X159311048Y-121028941D01*
X159250743Y-120883352D01*
X159220000Y-120728795D01*
X159220000Y-120571205D01*
X159250743Y-120416648D01*
X159311048Y-120271059D01*
X159398601Y-120140027D01*
X159510027Y-120028601D01*
X159641059Y-119941048D01*
X159786648Y-119880743D01*
X159941205Y-119850000D01*
X160098795Y-119850000D01*
X160253352Y-119880743D01*
X160253352Y-119880743D01*
G37*
G36*
X157713352Y-119880743D02*
X157858941Y-119941048D01*
X157989973Y-120028601D01*
X158101399Y-120140027D01*
X158188952Y-120271059D01*
X158249257Y-120416648D01*
X158280000Y-120571205D01*
X158280000Y-120728795D01*
X158249257Y-120883352D01*
X158188952Y-121028941D01*
X158101399Y-121159973D01*
X157989973Y-121271399D01*
X157858941Y-121358952D01*
X157713352Y-121419257D01*
X157558795Y-121450000D01*
X157401205Y-121450000D01*
X157246648Y-121419257D01*
X157101059Y-121358952D01*
X156970027Y-121271399D01*
X156858601Y-121159973D01*
X156771048Y-121028941D01*
X156710743Y-120883352D01*
X156680000Y-120728795D01*
X156680000Y-120571205D01*
X156710743Y-120416648D01*
X156771048Y-120271059D01*
X156858601Y-120140027D01*
X156970027Y-120028601D01*
X157101059Y-119941048D01*
X157246648Y-119880743D01*
X157401205Y-119850000D01*
X157558795Y-119850000D01*
X157713352Y-119880743D01*
X157713352Y-119880743D01*
G37*
G36*
X155173352Y-119880743D02*
X155318941Y-119941048D01*
X155449973Y-120028601D01*
X155561399Y-120140027D01*
X155648952Y-120271059D01*
X155709257Y-120416648D01*
X155740000Y-120571205D01*
X155740000Y-120728795D01*
X155709257Y-120883352D01*
X155648952Y-121028941D01*
X155561399Y-121159973D01*
X155449973Y-121271399D01*
X155318941Y-121358952D01*
X155173352Y-121419257D01*
X155018795Y-121450000D01*
X154861205Y-121450000D01*
X154706648Y-121419257D01*
X154561059Y-121358952D01*
X154430027Y-121271399D01*
X154318601Y-121159973D01*
X154231048Y-121028941D01*
X154170743Y-120883352D01*
X154140000Y-120728795D01*
X154140000Y-120571205D01*
X154170743Y-120416648D01*
X154231048Y-120271059D01*
X154318601Y-120140027D01*
X154430027Y-120028601D01*
X154561059Y-119941048D01*
X154706648Y-119880743D01*
X154861205Y-119850000D01*
X155018795Y-119850000D01*
X155173352Y-119880743D01*
X155173352Y-119880743D01*
G37*
G36*
X152633352Y-119880743D02*
X152778941Y-119941048D01*
X152909973Y-120028601D01*
X153021399Y-120140027D01*
X153108952Y-120271059D01*
X153169257Y-120416648D01*
X153200000Y-120571205D01*
X153200000Y-120728795D01*
X153169257Y-120883352D01*
X153108952Y-121028941D01*
X153021399Y-121159973D01*
X152909973Y-121271399D01*
X152778941Y-121358952D01*
X152633352Y-121419257D01*
X152478795Y-121450000D01*
X152321205Y-121450000D01*
X152166648Y-121419257D01*
X152021059Y-121358952D01*
X151890027Y-121271399D01*
X151778601Y-121159973D01*
X151691048Y-121028941D01*
X151630743Y-120883352D01*
X151600000Y-120728795D01*
X151600000Y-120571205D01*
X151630743Y-120416648D01*
X151691048Y-120271059D01*
X151778601Y-120140027D01*
X151890027Y-120028601D01*
X152021059Y-119941048D01*
X152166648Y-119880743D01*
X152321205Y-119850000D01*
X152478795Y-119850000D01*
X152633352Y-119880743D01*
X152633352Y-119880743D01*
G37*
G36*
X150093352Y-119880743D02*
X150238941Y-119941048D01*
X150369973Y-120028601D01*
X150481399Y-120140027D01*
X150568952Y-120271059D01*
X150629257Y-120416648D01*
X150660000Y-120571205D01*
X150660000Y-120728795D01*
X150629257Y-120883352D01*
X150568952Y-121028941D01*
X150481399Y-121159973D01*
X150369973Y-121271399D01*
X150238941Y-121358952D01*
X150093352Y-121419257D01*
X149938795Y-121450000D01*
X149781205Y-121450000D01*
X149626648Y-121419257D01*
X149481059Y-121358952D01*
X149350027Y-121271399D01*
X149238601Y-121159973D01*
X149151048Y-121028941D01*
X149090743Y-120883352D01*
X149060000Y-120728795D01*
X149060000Y-120571205D01*
X149090743Y-120416648D01*
X149151048Y-120271059D01*
X149238601Y-120140027D01*
X149350027Y-120028601D01*
X149481059Y-119941048D01*
X149626648Y-119880743D01*
X149781205Y-119850000D01*
X149938795Y-119850000D01*
X150093352Y-119880743D01*
X150093352Y-119880743D01*
G37*
G36*
X147553352Y-119880743D02*
X147698941Y-119941048D01*
X147829973Y-120028601D01*
X147941399Y-120140027D01*
X148028952Y-120271059D01*
X148089257Y-120416648D01*
X148120000Y-120571205D01*
X148120000Y-120728795D01*
X148089257Y-120883352D01*
X148028952Y-121028941D01*
X147941399Y-121159973D01*
X147829973Y-121271399D01*
X147698941Y-121358952D01*
X147553352Y-121419257D01*
X147398795Y-121450000D01*
X147241205Y-121450000D01*
X147086648Y-121419257D01*
X146941059Y-121358952D01*
X146810027Y-121271399D01*
X146698601Y-121159973D01*
X146611048Y-121028941D01*
X146550743Y-120883352D01*
X146520000Y-120728795D01*
X146520000Y-120571205D01*
X146550743Y-120416648D01*
X146611048Y-120271059D01*
X146698601Y-120140027D01*
X146810027Y-120028601D01*
X146941059Y-119941048D01*
X147086648Y-119880743D01*
X147241205Y-119850000D01*
X147398795Y-119850000D01*
X147553352Y-119880743D01*
X147553352Y-119880743D01*
G37*
G36*
X145013352Y-119880743D02*
X145158941Y-119941048D01*
X145289973Y-120028601D01*
X145401399Y-120140027D01*
X145488952Y-120271059D01*
X145549257Y-120416648D01*
X145580000Y-120571205D01*
X145580000Y-120728795D01*
X145549257Y-120883352D01*
X145488952Y-121028941D01*
X145401399Y-121159973D01*
X145289973Y-121271399D01*
X145158941Y-121358952D01*
X145013352Y-121419257D01*
X144858795Y-121450000D01*
X144701205Y-121450000D01*
X144546648Y-121419257D01*
X144401059Y-121358952D01*
X144270027Y-121271399D01*
X144158601Y-121159973D01*
X144071048Y-121028941D01*
X144010743Y-120883352D01*
X143980000Y-120728795D01*
X143980000Y-120571205D01*
X144010743Y-120416648D01*
X144071048Y-120271059D01*
X144158601Y-120140027D01*
X144270027Y-120028601D01*
X144401059Y-119941048D01*
X144546648Y-119880743D01*
X144701205Y-119850000D01*
X144858795Y-119850000D01*
X145013352Y-119880743D01*
X145013352Y-119880743D01*
G37*
G36*
X142473352Y-119880743D02*
X142618941Y-119941048D01*
X142749973Y-120028601D01*
X142861399Y-120140027D01*
X142948952Y-120271059D01*
X143009257Y-120416648D01*
X143040000Y-120571205D01*
X143040000Y-120728795D01*
X143009257Y-120883352D01*
X142948952Y-121028941D01*
X142861399Y-121159973D01*
X142749973Y-121271399D01*
X142618941Y-121358952D01*
X142473352Y-121419257D01*
X142318795Y-121450000D01*
X142161205Y-121450000D01*
X142006648Y-121419257D01*
X141861059Y-121358952D01*
X141730027Y-121271399D01*
X141618601Y-121159973D01*
X141531048Y-121028941D01*
X141470743Y-120883352D01*
X141440000Y-120728795D01*
X141440000Y-120571205D01*
X141470743Y-120416648D01*
X141531048Y-120271059D01*
X141618601Y-120140027D01*
X141730027Y-120028601D01*
X141861059Y-119941048D01*
X142006648Y-119880743D01*
X142161205Y-119850000D01*
X142318795Y-119850000D01*
X142473352Y-119880743D01*
X142473352Y-119880743D01*
G37*
G36*
X139933352Y-119880743D02*
X140078941Y-119941048D01*
X140209973Y-120028601D01*
X140321399Y-120140027D01*
X140408952Y-120271059D01*
X140469257Y-120416648D01*
X140500000Y-120571205D01*
X140500000Y-120728795D01*
X140469257Y-120883352D01*
X140408952Y-121028941D01*
X140321399Y-121159973D01*
X140209973Y-121271399D01*
X140078941Y-121358952D01*
X139933352Y-121419257D01*
X139778795Y-121450000D01*
X139621205Y-121450000D01*
X139466648Y-121419257D01*
X139321059Y-121358952D01*
X139190027Y-121271399D01*
X139078601Y-121159973D01*
X138991048Y-121028941D01*
X138930743Y-120883352D01*
X138900000Y-120728795D01*
X138900000Y-120571205D01*
X138930743Y-120416648D01*
X138991048Y-120271059D01*
X139078601Y-120140027D01*
X139190027Y-120028601D01*
X139321059Y-119941048D01*
X139466648Y-119880743D01*
X139621205Y-119850000D01*
X139778795Y-119850000D01*
X139933352Y-119880743D01*
X139933352Y-119880743D01*
G37*
G36*
X170413352Y-117340743D02*
X170558941Y-117401048D01*
X170689973Y-117488601D01*
X170801399Y-117600027D01*
X170888952Y-117731059D01*
X170949257Y-117876648D01*
X170980000Y-118031205D01*
X170980000Y-118188795D01*
X170949257Y-118343352D01*
X170888952Y-118488941D01*
X170801399Y-118619973D01*
X170689973Y-118731399D01*
X170558941Y-118818952D01*
X170413352Y-118879257D01*
X170258795Y-118910000D01*
X170101205Y-118910000D01*
X169946648Y-118879257D01*
X169801059Y-118818952D01*
X169670027Y-118731399D01*
X169558601Y-118619973D01*
X169471048Y-118488941D01*
X169410743Y-118343352D01*
X169380000Y-118188795D01*
X169380000Y-118031205D01*
X169410743Y-117876648D01*
X169471048Y-117731059D01*
X169558601Y-117600027D01*
X169670027Y-117488601D01*
X169801059Y-117401048D01*
X169946648Y-117340743D01*
X170101205Y-117310000D01*
X170258795Y-117310000D01*
X170413352Y-117340743D01*
X170413352Y-117340743D01*
G37*
G36*
X170413352Y-114800743D02*
X170558941Y-114861048D01*
X170689973Y-114948601D01*
X170801399Y-115060027D01*
X170888952Y-115191059D01*
X170949257Y-115336648D01*
X170980000Y-115491205D01*
X170980000Y-115648795D01*
X170949257Y-115803352D01*
X170888952Y-115948941D01*
X170801399Y-116079973D01*
X170689973Y-116191399D01*
X170558941Y-116278952D01*
X170413352Y-116339257D01*
X170258795Y-116370000D01*
X170101205Y-116370000D01*
X169946648Y-116339257D01*
X169801059Y-116278952D01*
X169670027Y-116191399D01*
X169558601Y-116079973D01*
X169471048Y-115948941D01*
X169410743Y-115803352D01*
X169380000Y-115648795D01*
X169380000Y-115491205D01*
X169410743Y-115336648D01*
X169471048Y-115191059D01*
X169558601Y-115060027D01*
X169670027Y-114948601D01*
X169801059Y-114861048D01*
X169946648Y-114800743D01*
X170101205Y-114770000D01*
X170258795Y-114770000D01*
X170413352Y-114800743D01*
X170413352Y-114800743D01*
G37*
G36*
X143649452Y-112089127D02*
X143787105Y-112116508D01*
X143959994Y-112188121D01*
X144115590Y-112292087D01*
X144247913Y-112424410D01*
X144351879Y-112580006D01*
X144423492Y-112752895D01*
X144460000Y-112936433D01*
X144460000Y-113123567D01*
X144423492Y-113307105D01*
X144351879Y-113479994D01*
X144247913Y-113635590D01*
X144115590Y-113767913D01*
X143959994Y-113871879D01*
X143787105Y-113943492D01*
X143649452Y-113970873D01*
X143603568Y-113980000D01*
X143416432Y-113980000D01*
X143370548Y-113970873D01*
X143232895Y-113943492D01*
X143060006Y-113871879D01*
X142904410Y-113767913D01*
X142772087Y-113635590D01*
X142668121Y-113479994D01*
X142596508Y-113307105D01*
X142560000Y-113123567D01*
X142560000Y-112936433D01*
X142596508Y-112752895D01*
X142668121Y-112580006D01*
X142772087Y-112424410D01*
X142904410Y-112292087D01*
X143060006Y-112188121D01*
X143232895Y-112116508D01*
X143370548Y-112089127D01*
X143416432Y-112080000D01*
X143603568Y-112080000D01*
X143649452Y-112089127D01*
X143649452Y-112089127D01*
G37*
G36*
X147459452Y-112089127D02*
X147597105Y-112116508D01*
X147769994Y-112188121D01*
X147925590Y-112292087D01*
X148057913Y-112424410D01*
X148161879Y-112580006D01*
X148233492Y-112752895D01*
X148270000Y-112936433D01*
X148270000Y-113123567D01*
X148233492Y-113307105D01*
X148161879Y-113479994D01*
X148057913Y-113635590D01*
X147925590Y-113767913D01*
X147769994Y-113871879D01*
X147597105Y-113943492D01*
X147459452Y-113970873D01*
X147413568Y-113980000D01*
X147226432Y-113980000D01*
X147180548Y-113970873D01*
X147042895Y-113943492D01*
X146870006Y-113871879D01*
X146714410Y-113767913D01*
X146582087Y-113635590D01*
X146478121Y-113479994D01*
X146406508Y-113307105D01*
X146370000Y-113123567D01*
X146370000Y-112936433D01*
X146406508Y-112752895D01*
X146478121Y-112580006D01*
X146582087Y-112424410D01*
X146714410Y-112292087D01*
X146870006Y-112188121D01*
X147042895Y-112116508D01*
X147180548Y-112089127D01*
X147226432Y-112080000D01*
X147413568Y-112080000D01*
X147459452Y-112089127D01*
X147459452Y-112089127D01*
G37*
G36*
X170413352Y-112260743D02*
X170558941Y-112321048D01*
X170689973Y-112408601D01*
X170801399Y-112520027D01*
X170888952Y-112651059D01*
X170949257Y-112796648D01*
X170980000Y-112951205D01*
X170980000Y-113108795D01*
X170949257Y-113263352D01*
X170888952Y-113408941D01*
X170801399Y-113539973D01*
X170689973Y-113651399D01*
X170558941Y-113738952D01*
X170413352Y-113799257D01*
X170258795Y-113830000D01*
X170101205Y-113830000D01*
X169946648Y-113799257D01*
X169801059Y-113738952D01*
X169670027Y-113651399D01*
X169558601Y-113539973D01*
X169471048Y-113408941D01*
X169410743Y-113263352D01*
X169380000Y-113108795D01*
X169380000Y-112951205D01*
X169410743Y-112796648D01*
X169471048Y-112651059D01*
X169558601Y-112520027D01*
X169670027Y-112408601D01*
X169801059Y-112321048D01*
X169946648Y-112260743D01*
X170101205Y-112230000D01*
X170258795Y-112230000D01*
X170413352Y-112260743D01*
X170413352Y-112260743D01*
G37*
G36*
X167873352Y-112260743D02*
X168018941Y-112321048D01*
X168149973Y-112408601D01*
X168261399Y-112520027D01*
X168348952Y-112651059D01*
X168409257Y-112796648D01*
X168440000Y-112951205D01*
X168440000Y-113108795D01*
X168409257Y-113263352D01*
X168348952Y-113408941D01*
X168261399Y-113539973D01*
X168149973Y-113651399D01*
X168018941Y-113738952D01*
X167873352Y-113799257D01*
X167718795Y-113830000D01*
X167561205Y-113830000D01*
X167406648Y-113799257D01*
X167261059Y-113738952D01*
X167130027Y-113651399D01*
X167018601Y-113539973D01*
X166931048Y-113408941D01*
X166870743Y-113263352D01*
X166840000Y-113108795D01*
X166840000Y-112951205D01*
X166870743Y-112796648D01*
X166931048Y-112651059D01*
X167018601Y-112520027D01*
X167130027Y-112408601D01*
X167261059Y-112321048D01*
X167406648Y-112260743D01*
X167561205Y-112230000D01*
X167718795Y-112230000D01*
X167873352Y-112260743D01*
X167873352Y-112260743D01*
G37*
G36*
X165333352Y-112260743D02*
X165478941Y-112321048D01*
X165609973Y-112408601D01*
X165721399Y-112520027D01*
X165808952Y-112651059D01*
X165869257Y-112796648D01*
X165900000Y-112951205D01*
X165900000Y-113108795D01*
X165869257Y-113263352D01*
X165808952Y-113408941D01*
X165721399Y-113539973D01*
X165609973Y-113651399D01*
X165478941Y-113738952D01*
X165333352Y-113799257D01*
X165178795Y-113830000D01*
X165021205Y-113830000D01*
X164866648Y-113799257D01*
X164721059Y-113738952D01*
X164590027Y-113651399D01*
X164478601Y-113539973D01*
X164391048Y-113408941D01*
X164330743Y-113263352D01*
X164300000Y-113108795D01*
X164300000Y-112951205D01*
X164330743Y-112796648D01*
X164391048Y-112651059D01*
X164478601Y-112520027D01*
X164590027Y-112408601D01*
X164721059Y-112321048D01*
X164866648Y-112260743D01*
X165021205Y-112230000D01*
X165178795Y-112230000D01*
X165333352Y-112260743D01*
X165333352Y-112260743D01*
G37*
G36*
X162793352Y-112260743D02*
X162938941Y-112321048D01*
X163069973Y-112408601D01*
X163181399Y-112520027D01*
X163268952Y-112651059D01*
X163329257Y-112796648D01*
X163360000Y-112951205D01*
X163360000Y-113108795D01*
X163329257Y-113263352D01*
X163268952Y-113408941D01*
X163181399Y-113539973D01*
X163069973Y-113651399D01*
X162938941Y-113738952D01*
X162793352Y-113799257D01*
X162638795Y-113830000D01*
X162481205Y-113830000D01*
X162326648Y-113799257D01*
X162181059Y-113738952D01*
X162050027Y-113651399D01*
X161938601Y-113539973D01*
X161851048Y-113408941D01*
X161790743Y-113263352D01*
X161760000Y-113108795D01*
X161760000Y-112951205D01*
X161790743Y-112796648D01*
X161851048Y-112651059D01*
X161938601Y-112520027D01*
X162050027Y-112408601D01*
X162181059Y-112321048D01*
X162326648Y-112260743D01*
X162481205Y-112230000D01*
X162638795Y-112230000D01*
X162793352Y-112260743D01*
X162793352Y-112260743D01*
G37*
G36*
X160253352Y-112260743D02*
X160398941Y-112321048D01*
X160529973Y-112408601D01*
X160641399Y-112520027D01*
X160728952Y-112651059D01*
X160789257Y-112796648D01*
X160820000Y-112951205D01*
X160820000Y-113108795D01*
X160789257Y-113263352D01*
X160728952Y-113408941D01*
X160641399Y-113539973D01*
X160529973Y-113651399D01*
X160398941Y-113738952D01*
X160253352Y-113799257D01*
X160098795Y-113830000D01*
X159941205Y-113830000D01*
X159786648Y-113799257D01*
X159641059Y-113738952D01*
X159510027Y-113651399D01*
X159398601Y-113539973D01*
X159311048Y-113408941D01*
X159250743Y-113263352D01*
X159220000Y-113108795D01*
X159220000Y-112951205D01*
X159250743Y-112796648D01*
X159311048Y-112651059D01*
X159398601Y-112520027D01*
X159510027Y-112408601D01*
X159641059Y-112321048D01*
X159786648Y-112260743D01*
X159941205Y-112230000D01*
X160098795Y-112230000D01*
X160253352Y-112260743D01*
X160253352Y-112260743D01*
G37*
G36*
X157713352Y-112260743D02*
X157858941Y-112321048D01*
X157989973Y-112408601D01*
X158101399Y-112520027D01*
X158188952Y-112651059D01*
X158249257Y-112796648D01*
X158280000Y-112951205D01*
X158280000Y-113108795D01*
X158249257Y-113263352D01*
X158188952Y-113408941D01*
X158101399Y-113539973D01*
X157989973Y-113651399D01*
X157858941Y-113738952D01*
X157713352Y-113799257D01*
X157558795Y-113830000D01*
X157401205Y-113830000D01*
X157246648Y-113799257D01*
X157101059Y-113738952D01*
X156970027Y-113651399D01*
X156858601Y-113539973D01*
X156771048Y-113408941D01*
X156710743Y-113263352D01*
X156680000Y-113108795D01*
X156680000Y-112951205D01*
X156710743Y-112796648D01*
X156771048Y-112651059D01*
X156858601Y-112520027D01*
X156970027Y-112408601D01*
X157101059Y-112321048D01*
X157246648Y-112260743D01*
X157401205Y-112230000D01*
X157558795Y-112230000D01*
X157713352Y-112260743D01*
X157713352Y-112260743D01*
G37*
G36*
X155173352Y-112260743D02*
X155318941Y-112321048D01*
X155449973Y-112408601D01*
X155561399Y-112520027D01*
X155648952Y-112651059D01*
X155709257Y-112796648D01*
X155740000Y-112951205D01*
X155740000Y-113108795D01*
X155709257Y-113263352D01*
X155648952Y-113408941D01*
X155561399Y-113539973D01*
X155449973Y-113651399D01*
X155318941Y-113738952D01*
X155173352Y-113799257D01*
X155018795Y-113830000D01*
X154861205Y-113830000D01*
X154706648Y-113799257D01*
X154561059Y-113738952D01*
X154430027Y-113651399D01*
X154318601Y-113539973D01*
X154231048Y-113408941D01*
X154170743Y-113263352D01*
X154140000Y-113108795D01*
X154140000Y-112951205D01*
X154170743Y-112796648D01*
X154231048Y-112651059D01*
X154318601Y-112520027D01*
X154430027Y-112408601D01*
X154561059Y-112321048D01*
X154706648Y-112260743D01*
X154861205Y-112230000D01*
X155018795Y-112230000D01*
X155173352Y-112260743D01*
X155173352Y-112260743D01*
G37*
G36*
X152633352Y-112260743D02*
X152778941Y-112321048D01*
X152909973Y-112408601D01*
X153021399Y-112520027D01*
X153108952Y-112651059D01*
X153169257Y-112796648D01*
X153200000Y-112951205D01*
X153200000Y-113108795D01*
X153169257Y-113263352D01*
X153108952Y-113408941D01*
X153021399Y-113539973D01*
X152909973Y-113651399D01*
X152778941Y-113738952D01*
X152633352Y-113799257D01*
X152478795Y-113830000D01*
X152321205Y-113830000D01*
X152166648Y-113799257D01*
X152021059Y-113738952D01*
X151890027Y-113651399D01*
X151778601Y-113539973D01*
X151691048Y-113408941D01*
X151630743Y-113263352D01*
X151600000Y-113108795D01*
X151600000Y-112951205D01*
X151630743Y-112796648D01*
X151691048Y-112651059D01*
X151778601Y-112520027D01*
X151890027Y-112408601D01*
X152021059Y-112321048D01*
X152166648Y-112260743D01*
X152321205Y-112230000D01*
X152478795Y-112230000D01*
X152633352Y-112260743D01*
X152633352Y-112260743D01*
G37*
G36*
X152633352Y-109720743D02*
X152778941Y-109781048D01*
X152909973Y-109868601D01*
X153021399Y-109980027D01*
X153108952Y-110111059D01*
X153169257Y-110256648D01*
X153200000Y-110411205D01*
X153200000Y-110568795D01*
X153169257Y-110723352D01*
X153108952Y-110868941D01*
X153021399Y-110999973D01*
X152909973Y-111111399D01*
X152778941Y-111198952D01*
X152633352Y-111259257D01*
X152478795Y-111290000D01*
X152321205Y-111290000D01*
X152166648Y-111259257D01*
X152021059Y-111198952D01*
X151890027Y-111111399D01*
X151778601Y-110999973D01*
X151691048Y-110868941D01*
X151630743Y-110723352D01*
X151600000Y-110568795D01*
X151600000Y-110411205D01*
X151630743Y-110256648D01*
X151691048Y-110111059D01*
X151778601Y-109980027D01*
X151890027Y-109868601D01*
X152021059Y-109781048D01*
X152166648Y-109720743D01*
X152321205Y-109690000D01*
X152478795Y-109690000D01*
X152633352Y-109720743D01*
X152633352Y-109720743D01*
G37*
G36*
X170413352Y-109720743D02*
X170558941Y-109781048D01*
X170689973Y-109868601D01*
X170801399Y-109980027D01*
X170888952Y-110111059D01*
X170949257Y-110256648D01*
X170980000Y-110411205D01*
X170980000Y-110568795D01*
X170949257Y-110723352D01*
X170888952Y-110868941D01*
X170801399Y-110999973D01*
X170689973Y-111111399D01*
X170558941Y-111198952D01*
X170413352Y-111259257D01*
X170258795Y-111290000D01*
X170101205Y-111290000D01*
X169946648Y-111259257D01*
X169801059Y-111198952D01*
X169670027Y-111111399D01*
X169558601Y-110999973D01*
X169471048Y-110868941D01*
X169410743Y-110723352D01*
X169380000Y-110568795D01*
X169380000Y-110411205D01*
X169410743Y-110256648D01*
X169471048Y-110111059D01*
X169558601Y-109980027D01*
X169670027Y-109868601D01*
X169801059Y-109781048D01*
X169946648Y-109720743D01*
X170101205Y-109690000D01*
X170258795Y-109690000D01*
X170413352Y-109720743D01*
X170413352Y-109720743D01*
G37*
G36*
X155173352Y-109720743D02*
X155318941Y-109781048D01*
X155449973Y-109868601D01*
X155561399Y-109980027D01*
X155648952Y-110111059D01*
X155709257Y-110256648D01*
X155740000Y-110411205D01*
X155740000Y-110568795D01*
X155709257Y-110723352D01*
X155648952Y-110868941D01*
X155561399Y-110999973D01*
X155449973Y-111111399D01*
X155318941Y-111198952D01*
X155173352Y-111259257D01*
X155018795Y-111290000D01*
X154861205Y-111290000D01*
X154706648Y-111259257D01*
X154561059Y-111198952D01*
X154430027Y-111111399D01*
X154318601Y-110999973D01*
X154231048Y-110868941D01*
X154170743Y-110723352D01*
X154140000Y-110568795D01*
X154140000Y-110411205D01*
X154170743Y-110256648D01*
X154231048Y-110111059D01*
X154318601Y-109980027D01*
X154430027Y-109868601D01*
X154561059Y-109781048D01*
X154706648Y-109720743D01*
X154861205Y-109690000D01*
X155018795Y-109690000D01*
X155173352Y-109720743D01*
X155173352Y-109720743D01*
G37*
G36*
X157713352Y-109720743D02*
X157858941Y-109781048D01*
X157989973Y-109868601D01*
X158101399Y-109980027D01*
X158188952Y-110111059D01*
X158249257Y-110256648D01*
X158280000Y-110411205D01*
X158280000Y-110568795D01*
X158249257Y-110723352D01*
X158188952Y-110868941D01*
X158101399Y-110999973D01*
X157989973Y-111111399D01*
X157858941Y-111198952D01*
X157713352Y-111259257D01*
X157558795Y-111290000D01*
X157401205Y-111290000D01*
X157246648Y-111259257D01*
X157101059Y-111198952D01*
X156970027Y-111111399D01*
X156858601Y-110999973D01*
X156771048Y-110868941D01*
X156710743Y-110723352D01*
X156680000Y-110568795D01*
X156680000Y-110411205D01*
X156710743Y-110256648D01*
X156771048Y-110111059D01*
X156858601Y-109980027D01*
X156970027Y-109868601D01*
X157101059Y-109781048D01*
X157246648Y-109720743D01*
X157401205Y-109690000D01*
X157558795Y-109690000D01*
X157713352Y-109720743D01*
X157713352Y-109720743D01*
G37*
G36*
X160253352Y-109720743D02*
X160398941Y-109781048D01*
X160529973Y-109868601D01*
X160641399Y-109980027D01*
X160728952Y-110111059D01*
X160789257Y-110256648D01*
X160820000Y-110411205D01*
X160820000Y-110568795D01*
X160789257Y-110723352D01*
X160728952Y-110868941D01*
X160641399Y-110999973D01*
X160529973Y-111111399D01*
X160398941Y-111198952D01*
X160253352Y-111259257D01*
X160098795Y-111290000D01*
X159941205Y-111290000D01*
X159786648Y-111259257D01*
X159641059Y-111198952D01*
X159510027Y-111111399D01*
X159398601Y-110999973D01*
X159311048Y-110868941D01*
X159250743Y-110723352D01*
X159220000Y-110568795D01*
X159220000Y-110411205D01*
X159250743Y-110256648D01*
X159311048Y-110111059D01*
X159398601Y-109980027D01*
X159510027Y-109868601D01*
X159641059Y-109781048D01*
X159786648Y-109720743D01*
X159941205Y-109690000D01*
X160098795Y-109690000D01*
X160253352Y-109720743D01*
X160253352Y-109720743D01*
G37*
G36*
X162793352Y-109720743D02*
X162938941Y-109781048D01*
X163069973Y-109868601D01*
X163181399Y-109980027D01*
X163268952Y-110111059D01*
X163329257Y-110256648D01*
X163360000Y-110411205D01*
X163360000Y-110568795D01*
X163329257Y-110723352D01*
X163268952Y-110868941D01*
X163181399Y-110999973D01*
X163069973Y-111111399D01*
X162938941Y-111198952D01*
X162793352Y-111259257D01*
X162638795Y-111290000D01*
X162481205Y-111290000D01*
X162326648Y-111259257D01*
X162181059Y-111198952D01*
X162050027Y-111111399D01*
X161938601Y-110999973D01*
X161851048Y-110868941D01*
X161790743Y-110723352D01*
X161760000Y-110568795D01*
X161760000Y-110411205D01*
X161790743Y-110256648D01*
X161851048Y-110111059D01*
X161938601Y-109980027D01*
X162050027Y-109868601D01*
X162181059Y-109781048D01*
X162326648Y-109720743D01*
X162481205Y-109690000D01*
X162638795Y-109690000D01*
X162793352Y-109720743D01*
X162793352Y-109720743D01*
G37*
G36*
X165333352Y-109720743D02*
X165478941Y-109781048D01*
X165609973Y-109868601D01*
X165721399Y-109980027D01*
X165808952Y-110111059D01*
X165869257Y-110256648D01*
X165900000Y-110411205D01*
X165900000Y-110568795D01*
X165869257Y-110723352D01*
X165808952Y-110868941D01*
X165721399Y-110999973D01*
X165609973Y-111111399D01*
X165478941Y-111198952D01*
X165333352Y-111259257D01*
X165178795Y-111290000D01*
X165021205Y-111290000D01*
X164866648Y-111259257D01*
X164721059Y-111198952D01*
X164590027Y-111111399D01*
X164478601Y-110999973D01*
X164391048Y-110868941D01*
X164330743Y-110723352D01*
X164300000Y-110568795D01*
X164300000Y-110411205D01*
X164330743Y-110256648D01*
X164391048Y-110111059D01*
X164478601Y-109980027D01*
X164590027Y-109868601D01*
X164721059Y-109781048D01*
X164866648Y-109720743D01*
X165021205Y-109690000D01*
X165178795Y-109690000D01*
X165333352Y-109720743D01*
X165333352Y-109720743D01*
G37*
G36*
X167873352Y-109720743D02*
X168018941Y-109781048D01*
X168149973Y-109868601D01*
X168261399Y-109980027D01*
X168348952Y-110111059D01*
X168409257Y-110256648D01*
X168440000Y-110411205D01*
X168440000Y-110568795D01*
X168409257Y-110723352D01*
X168348952Y-110868941D01*
X168261399Y-110999973D01*
X168149973Y-111111399D01*
X168018941Y-111198952D01*
X167873352Y-111259257D01*
X167718795Y-111290000D01*
X167561205Y-111290000D01*
X167406648Y-111259257D01*
X167261059Y-111198952D01*
X167130027Y-111111399D01*
X167018601Y-110999973D01*
X166931048Y-110868941D01*
X166870743Y-110723352D01*
X166840000Y-110568795D01*
X166840000Y-110411205D01*
X166870743Y-110256648D01*
X166931048Y-110111059D01*
X167018601Y-109980027D01*
X167130027Y-109868601D01*
X167261059Y-109781048D01*
X167406648Y-109720743D01*
X167561205Y-109690000D01*
X167718795Y-109690000D01*
X167873352Y-109720743D01*
X167873352Y-109720743D01*
G37*
G36*
X170413352Y-107180743D02*
X170558941Y-107241048D01*
X170689973Y-107328601D01*
X170801399Y-107440027D01*
X170888952Y-107571059D01*
X170949257Y-107716648D01*
X170980000Y-107871205D01*
X170980000Y-108028795D01*
X170949257Y-108183352D01*
X170888952Y-108328941D01*
X170801399Y-108459973D01*
X170689973Y-108571399D01*
X170558941Y-108658952D01*
X170413352Y-108719257D01*
X170258795Y-108750000D01*
X170101205Y-108750000D01*
X169946648Y-108719257D01*
X169801059Y-108658952D01*
X169670027Y-108571399D01*
X169558601Y-108459973D01*
X169471048Y-108328941D01*
X169410743Y-108183352D01*
X169380000Y-108028795D01*
X169380000Y-107871205D01*
X169410743Y-107716648D01*
X169471048Y-107571059D01*
X169558601Y-107440027D01*
X169670027Y-107328601D01*
X169801059Y-107241048D01*
X169946648Y-107180743D01*
X170101205Y-107150000D01*
X170258795Y-107150000D01*
X170413352Y-107180743D01*
X170413352Y-107180743D01*
G37*
G36*
X150093352Y-107180743D02*
X150238941Y-107241048D01*
X150369973Y-107328601D01*
X150481399Y-107440027D01*
X150568952Y-107571059D01*
X150629257Y-107716648D01*
X150660000Y-107871205D01*
X150660000Y-108028795D01*
X150629257Y-108183352D01*
X150568952Y-108328941D01*
X150481399Y-108459973D01*
X150369973Y-108571399D01*
X150238941Y-108658952D01*
X150093352Y-108719257D01*
X149938795Y-108750000D01*
X149781205Y-108750000D01*
X149626648Y-108719257D01*
X149481059Y-108658952D01*
X149350027Y-108571399D01*
X149238601Y-108459973D01*
X149151048Y-108328941D01*
X149090743Y-108183352D01*
X149060000Y-108028795D01*
X149060000Y-107871205D01*
X149090743Y-107716648D01*
X149151048Y-107571059D01*
X149238601Y-107440027D01*
X149350027Y-107328601D01*
X149481059Y-107241048D01*
X149626648Y-107180743D01*
X149781205Y-107150000D01*
X149938795Y-107150000D01*
X150093352Y-107180743D01*
X150093352Y-107180743D01*
G37*
G36*
X147553352Y-107180743D02*
X147698941Y-107241048D01*
X147829973Y-107328601D01*
X147941399Y-107440027D01*
X148028952Y-107571059D01*
X148089257Y-107716648D01*
X148120000Y-107871205D01*
X148120000Y-108028795D01*
X148089257Y-108183352D01*
X148028952Y-108328941D01*
X147941399Y-108459973D01*
X147829973Y-108571399D01*
X147698941Y-108658952D01*
X147553352Y-108719257D01*
X147398795Y-108750000D01*
X147241205Y-108750000D01*
X147086648Y-108719257D01*
X146941059Y-108658952D01*
X146810027Y-108571399D01*
X146698601Y-108459973D01*
X146611048Y-108328941D01*
X146550743Y-108183352D01*
X146520000Y-108028795D01*
X146520000Y-107871205D01*
X146550743Y-107716648D01*
X146611048Y-107571059D01*
X146698601Y-107440027D01*
X146810027Y-107328601D01*
X146941059Y-107241048D01*
X147086648Y-107180743D01*
X147241205Y-107150000D01*
X147398795Y-107150000D01*
X147553352Y-107180743D01*
X147553352Y-107180743D01*
G37*
G36*
X145013352Y-107180743D02*
X145158941Y-107241048D01*
X145289973Y-107328601D01*
X145401399Y-107440027D01*
X145488952Y-107571059D01*
X145549257Y-107716648D01*
X145580000Y-107871205D01*
X145580000Y-108028795D01*
X145549257Y-108183352D01*
X145488952Y-108328941D01*
X145401399Y-108459973D01*
X145289973Y-108571399D01*
X145158941Y-108658952D01*
X145013352Y-108719257D01*
X144858795Y-108750000D01*
X144701205Y-108750000D01*
X144546648Y-108719257D01*
X144401059Y-108658952D01*
X144270027Y-108571399D01*
X144158601Y-108459973D01*
X144071048Y-108328941D01*
X144010743Y-108183352D01*
X143980000Y-108028795D01*
X143980000Y-107871205D01*
X144010743Y-107716648D01*
X144071048Y-107571059D01*
X144158601Y-107440027D01*
X144270027Y-107328601D01*
X144401059Y-107241048D01*
X144546648Y-107180743D01*
X144701205Y-107150000D01*
X144858795Y-107150000D01*
X145013352Y-107180743D01*
X145013352Y-107180743D01*
G37*
G36*
X139933352Y-107180743D02*
X140078941Y-107241048D01*
X140209973Y-107328601D01*
X140321399Y-107440027D01*
X140408952Y-107571059D01*
X140469257Y-107716648D01*
X140500000Y-107871205D01*
X140500000Y-108028795D01*
X140469257Y-108183352D01*
X140408952Y-108328941D01*
X140321399Y-108459973D01*
X140209973Y-108571399D01*
X140078941Y-108658952D01*
X139933352Y-108719257D01*
X139778795Y-108750000D01*
X139621205Y-108750000D01*
X139466648Y-108719257D01*
X139321059Y-108658952D01*
X139190027Y-108571399D01*
X139078601Y-108459973D01*
X138991048Y-108328941D01*
X138930743Y-108183352D01*
X138900000Y-108028795D01*
X138900000Y-107871205D01*
X138930743Y-107716648D01*
X138991048Y-107571059D01*
X139078601Y-107440027D01*
X139190027Y-107328601D01*
X139321059Y-107241048D01*
X139466648Y-107180743D01*
X139621205Y-107150000D01*
X139778795Y-107150000D01*
X139933352Y-107180743D01*
X139933352Y-107180743D01*
G37*
G36*
X157713352Y-104640743D02*
X157858941Y-104701048D01*
X157989973Y-104788601D01*
X158101399Y-104900027D01*
X158188952Y-105031059D01*
X158249257Y-105176648D01*
X158280000Y-105331205D01*
X158280000Y-105488795D01*
X158249257Y-105643352D01*
X158188952Y-105788941D01*
X158101399Y-105919973D01*
X157989973Y-106031399D01*
X157858941Y-106118952D01*
X157713352Y-106179257D01*
X157558795Y-106210000D01*
X157401205Y-106210000D01*
X157246648Y-106179257D01*
X157101059Y-106118952D01*
X156970027Y-106031399D01*
X156858601Y-105919973D01*
X156771048Y-105788941D01*
X156710743Y-105643352D01*
X156680000Y-105488795D01*
X156680000Y-105331205D01*
X156710743Y-105176648D01*
X156771048Y-105031059D01*
X156858601Y-104900027D01*
X156970027Y-104788601D01*
X157101059Y-104701048D01*
X157246648Y-104640743D01*
X157401205Y-104610000D01*
X157558795Y-104610000D01*
X157713352Y-104640743D01*
X157713352Y-104640743D01*
G37*
G36*
X155173352Y-104640743D02*
X155318941Y-104701048D01*
X155449973Y-104788601D01*
X155561399Y-104900027D01*
X155648952Y-105031059D01*
X155709257Y-105176648D01*
X155740000Y-105331205D01*
X155740000Y-105488795D01*
X155709257Y-105643352D01*
X155648952Y-105788941D01*
X155561399Y-105919973D01*
X155449973Y-106031399D01*
X155318941Y-106118952D01*
X155173352Y-106179257D01*
X155018795Y-106210000D01*
X154861205Y-106210000D01*
X154706648Y-106179257D01*
X154561059Y-106118952D01*
X154430027Y-106031399D01*
X154318601Y-105919973D01*
X154231048Y-105788941D01*
X154170743Y-105643352D01*
X154140000Y-105488795D01*
X154140000Y-105331205D01*
X154170743Y-105176648D01*
X154231048Y-105031059D01*
X154318601Y-104900027D01*
X154430027Y-104788601D01*
X154561059Y-104701048D01*
X154706648Y-104640743D01*
X154861205Y-104610000D01*
X155018795Y-104610000D01*
X155173352Y-104640743D01*
X155173352Y-104640743D01*
G37*
G36*
X152633352Y-104640743D02*
X152778941Y-104701048D01*
X152909973Y-104788601D01*
X153021399Y-104900027D01*
X153108952Y-105031059D01*
X153169257Y-105176648D01*
X153200000Y-105331205D01*
X153200000Y-105488795D01*
X153169257Y-105643352D01*
X153108952Y-105788941D01*
X153021399Y-105919973D01*
X152909973Y-106031399D01*
X152778941Y-106118952D01*
X152633352Y-106179257D01*
X152478795Y-106210000D01*
X152321205Y-106210000D01*
X152166648Y-106179257D01*
X152021059Y-106118952D01*
X151890027Y-106031399D01*
X151778601Y-105919973D01*
X151691048Y-105788941D01*
X151630743Y-105643352D01*
X151600000Y-105488795D01*
X151600000Y-105331205D01*
X151630743Y-105176648D01*
X151691048Y-105031059D01*
X151778601Y-104900027D01*
X151890027Y-104788601D01*
X152021059Y-104701048D01*
X152166648Y-104640743D01*
X152321205Y-104610000D01*
X152478795Y-104610000D01*
X152633352Y-104640743D01*
X152633352Y-104640743D01*
G37*
G36*
X150093352Y-104640743D02*
X150238941Y-104701048D01*
X150369973Y-104788601D01*
X150481399Y-104900027D01*
X150568952Y-105031059D01*
X150629257Y-105176648D01*
X150660000Y-105331205D01*
X150660000Y-105488795D01*
X150629257Y-105643352D01*
X150568952Y-105788941D01*
X150481399Y-105919973D01*
X150369973Y-106031399D01*
X150238941Y-106118952D01*
X150093352Y-106179257D01*
X149938795Y-106210000D01*
X149781205Y-106210000D01*
X149626648Y-106179257D01*
X149481059Y-106118952D01*
X149350027Y-106031399D01*
X149238601Y-105919973D01*
X149151048Y-105788941D01*
X149090743Y-105643352D01*
X149060000Y-105488795D01*
X149060000Y-105331205D01*
X149090743Y-105176648D01*
X149151048Y-105031059D01*
X149238601Y-104900027D01*
X149350027Y-104788601D01*
X149481059Y-104701048D01*
X149626648Y-104640743D01*
X149781205Y-104610000D01*
X149938795Y-104610000D01*
X150093352Y-104640743D01*
X150093352Y-104640743D01*
G37*
G36*
X160253352Y-104640743D02*
X160398941Y-104701048D01*
X160529973Y-104788601D01*
X160641399Y-104900027D01*
X160728952Y-105031059D01*
X160789257Y-105176648D01*
X160820000Y-105331205D01*
X160820000Y-105488795D01*
X160789257Y-105643352D01*
X160728952Y-105788941D01*
X160641399Y-105919973D01*
X160529973Y-106031399D01*
X160398941Y-106118952D01*
X160253352Y-106179257D01*
X160098795Y-106210000D01*
X159941205Y-106210000D01*
X159786648Y-106179257D01*
X159641059Y-106118952D01*
X159510027Y-106031399D01*
X159398601Y-105919973D01*
X159311048Y-105788941D01*
X159250743Y-105643352D01*
X159220000Y-105488795D01*
X159220000Y-105331205D01*
X159250743Y-105176648D01*
X159311048Y-105031059D01*
X159398601Y-104900027D01*
X159510027Y-104788601D01*
X159641059Y-104701048D01*
X159786648Y-104640743D01*
X159941205Y-104610000D01*
X160098795Y-104610000D01*
X160253352Y-104640743D01*
X160253352Y-104640743D01*
G37*
G36*
X162793352Y-104640743D02*
X162938941Y-104701048D01*
X163069973Y-104788601D01*
X163181399Y-104900027D01*
X163268952Y-105031059D01*
X163329257Y-105176648D01*
X163360000Y-105331205D01*
X163360000Y-105488795D01*
X163329257Y-105643352D01*
X163268952Y-105788941D01*
X163181399Y-105919973D01*
X163069973Y-106031399D01*
X162938941Y-106118952D01*
X162793352Y-106179257D01*
X162638795Y-106210000D01*
X162481205Y-106210000D01*
X162326648Y-106179257D01*
X162181059Y-106118952D01*
X162050027Y-106031399D01*
X161938601Y-105919973D01*
X161851048Y-105788941D01*
X161790743Y-105643352D01*
X161760000Y-105488795D01*
X161760000Y-105331205D01*
X161790743Y-105176648D01*
X161851048Y-105031059D01*
X161938601Y-104900027D01*
X162050027Y-104788601D01*
X162181059Y-104701048D01*
X162326648Y-104640743D01*
X162481205Y-104610000D01*
X162638795Y-104610000D01*
X162793352Y-104640743D01*
X162793352Y-104640743D01*
G37*
G36*
X165333352Y-104640743D02*
X165478941Y-104701048D01*
X165609973Y-104788601D01*
X165721399Y-104900027D01*
X165808952Y-105031059D01*
X165869257Y-105176648D01*
X165900000Y-105331205D01*
X165900000Y-105488795D01*
X165869257Y-105643352D01*
X165808952Y-105788941D01*
X165721399Y-105919973D01*
X165609973Y-106031399D01*
X165478941Y-106118952D01*
X165333352Y-106179257D01*
X165178795Y-106210000D01*
X165021205Y-106210000D01*
X164866648Y-106179257D01*
X164721059Y-106118952D01*
X164590027Y-106031399D01*
X164478601Y-105919973D01*
X164391048Y-105788941D01*
X164330743Y-105643352D01*
X164300000Y-105488795D01*
X164300000Y-105331205D01*
X164330743Y-105176648D01*
X164391048Y-105031059D01*
X164478601Y-104900027D01*
X164590027Y-104788601D01*
X164721059Y-104701048D01*
X164866648Y-104640743D01*
X165021205Y-104610000D01*
X165178795Y-104610000D01*
X165333352Y-104640743D01*
X165333352Y-104640743D01*
G37*
G36*
X167873352Y-104640743D02*
X168018941Y-104701048D01*
X168149973Y-104788601D01*
X168261399Y-104900027D01*
X168348952Y-105031059D01*
X168409257Y-105176648D01*
X168440000Y-105331205D01*
X168440000Y-105488795D01*
X168409257Y-105643352D01*
X168348952Y-105788941D01*
X168261399Y-105919973D01*
X168149973Y-106031399D01*
X168018941Y-106118952D01*
X167873352Y-106179257D01*
X167718795Y-106210000D01*
X167561205Y-106210000D01*
X167406648Y-106179257D01*
X167261059Y-106118952D01*
X167130027Y-106031399D01*
X167018601Y-105919973D01*
X166931048Y-105788941D01*
X166870743Y-105643352D01*
X166840000Y-105488795D01*
X166840000Y-105331205D01*
X166870743Y-105176648D01*
X166931048Y-105031059D01*
X167018601Y-104900027D01*
X167130027Y-104788601D01*
X167261059Y-104701048D01*
X167406648Y-104640743D01*
X167561205Y-104610000D01*
X167718795Y-104610000D01*
X167873352Y-104640743D01*
X167873352Y-104640743D01*
G37*
G36*
X137393352Y-104640743D02*
X137538941Y-104701048D01*
X137669973Y-104788601D01*
X137781399Y-104900027D01*
X137868952Y-105031059D01*
X137929257Y-105176648D01*
X137960000Y-105331205D01*
X137960000Y-105488795D01*
X137929257Y-105643352D01*
X137868952Y-105788941D01*
X137781399Y-105919973D01*
X137669973Y-106031399D01*
X137538941Y-106118952D01*
X137393352Y-106179257D01*
X137238795Y-106210000D01*
X137081205Y-106210000D01*
X136926648Y-106179257D01*
X136781059Y-106118952D01*
X136650027Y-106031399D01*
X136538601Y-105919973D01*
X136451048Y-105788941D01*
X136390743Y-105643352D01*
X136360000Y-105488795D01*
X136360000Y-105331205D01*
X136390743Y-105176648D01*
X136451048Y-105031059D01*
X136538601Y-104900027D01*
X136650027Y-104788601D01*
X136781059Y-104701048D01*
X136926648Y-104640743D01*
X137081205Y-104610000D01*
X137238795Y-104610000D01*
X137393352Y-104640743D01*
X137393352Y-104640743D01*
G37*
G36*
X139933352Y-104640743D02*
X140078941Y-104701048D01*
X140209973Y-104788601D01*
X140321399Y-104900027D01*
X140408952Y-105031059D01*
X140469257Y-105176648D01*
X140500000Y-105331205D01*
X140500000Y-105488795D01*
X140469257Y-105643352D01*
X140408952Y-105788941D01*
X140321399Y-105919973D01*
X140209973Y-106031399D01*
X140078941Y-106118952D01*
X139933352Y-106179257D01*
X139778795Y-106210000D01*
X139621205Y-106210000D01*
X139466648Y-106179257D01*
X139321059Y-106118952D01*
X139190027Y-106031399D01*
X139078601Y-105919973D01*
X138991048Y-105788941D01*
X138930743Y-105643352D01*
X138900000Y-105488795D01*
X138900000Y-105331205D01*
X138930743Y-105176648D01*
X138991048Y-105031059D01*
X139078601Y-104900027D01*
X139190027Y-104788601D01*
X139321059Y-104701048D01*
X139466648Y-104640743D01*
X139621205Y-104610000D01*
X139778795Y-104610000D01*
X139933352Y-104640743D01*
X139933352Y-104640743D01*
G37*
G36*
X142473352Y-104640743D02*
X142618941Y-104701048D01*
X142749973Y-104788601D01*
X142861399Y-104900027D01*
X142948952Y-105031059D01*
X143009257Y-105176648D01*
X143040000Y-105331205D01*
X143040000Y-105488795D01*
X143009257Y-105643352D01*
X142948952Y-105788941D01*
X142861399Y-105919973D01*
X142749973Y-106031399D01*
X142618941Y-106118952D01*
X142473352Y-106179257D01*
X142318795Y-106210000D01*
X142161205Y-106210000D01*
X142006648Y-106179257D01*
X141861059Y-106118952D01*
X141730027Y-106031399D01*
X141618601Y-105919973D01*
X141531048Y-105788941D01*
X141470743Y-105643352D01*
X141440000Y-105488795D01*
X141440000Y-105331205D01*
X141470743Y-105176648D01*
X141531048Y-105031059D01*
X141618601Y-104900027D01*
X141730027Y-104788601D01*
X141861059Y-104701048D01*
X142006648Y-104640743D01*
X142161205Y-104610000D01*
X142318795Y-104610000D01*
X142473352Y-104640743D01*
X142473352Y-104640743D01*
G37*
G36*
X145013352Y-104640743D02*
X145158941Y-104701048D01*
X145289973Y-104788601D01*
X145401399Y-104900027D01*
X145488952Y-105031059D01*
X145549257Y-105176648D01*
X145580000Y-105331205D01*
X145580000Y-105488795D01*
X145549257Y-105643352D01*
X145488952Y-105788941D01*
X145401399Y-105919973D01*
X145289973Y-106031399D01*
X145158941Y-106118952D01*
X145013352Y-106179257D01*
X144858795Y-106210000D01*
X144701205Y-106210000D01*
X144546648Y-106179257D01*
X144401059Y-106118952D01*
X144270027Y-106031399D01*
X144158601Y-105919973D01*
X144071048Y-105788941D01*
X144010743Y-105643352D01*
X143980000Y-105488795D01*
X143980000Y-105331205D01*
X144010743Y-105176648D01*
X144071048Y-105031059D01*
X144158601Y-104900027D01*
X144270027Y-104788601D01*
X144401059Y-104701048D01*
X144546648Y-104640743D01*
X144701205Y-104610000D01*
X144858795Y-104610000D01*
X145013352Y-104640743D01*
X145013352Y-104640743D01*
G37*
G36*
X147553352Y-104640743D02*
X147698941Y-104701048D01*
X147829973Y-104788601D01*
X147941399Y-104900027D01*
X148028952Y-105031059D01*
X148089257Y-105176648D01*
X148120000Y-105331205D01*
X148120000Y-105488795D01*
X148089257Y-105643352D01*
X148028952Y-105788941D01*
X147941399Y-105919973D01*
X147829973Y-106031399D01*
X147698941Y-106118952D01*
X147553352Y-106179257D01*
X147398795Y-106210000D01*
X147241205Y-106210000D01*
X147086648Y-106179257D01*
X146941059Y-106118952D01*
X146810027Y-106031399D01*
X146698601Y-105919973D01*
X146611048Y-105788941D01*
X146550743Y-105643352D01*
X146520000Y-105488795D01*
X146520000Y-105331205D01*
X146550743Y-105176648D01*
X146611048Y-105031059D01*
X146698601Y-104900027D01*
X146810027Y-104788601D01*
X146941059Y-104701048D01*
X147086648Y-104640743D01*
X147241205Y-104610000D01*
X147398795Y-104610000D01*
X147553352Y-104640743D01*
X147553352Y-104640743D01*
G37*
G36*
X170413352Y-104640743D02*
X170558941Y-104701048D01*
X170689973Y-104788601D01*
X170801399Y-104900027D01*
X170888952Y-105031059D01*
X170949257Y-105176648D01*
X170980000Y-105331205D01*
X170980000Y-105488795D01*
X170949257Y-105643352D01*
X170888952Y-105788941D01*
X170801399Y-105919973D01*
X170689973Y-106031399D01*
X170558941Y-106118952D01*
X170413352Y-106179257D01*
X170258795Y-106210000D01*
X170101205Y-106210000D01*
X169946648Y-106179257D01*
X169801059Y-106118952D01*
X169670027Y-106031399D01*
X169558601Y-105919973D01*
X169471048Y-105788941D01*
X169410743Y-105643352D01*
X169380000Y-105488795D01*
X169380000Y-105331205D01*
X169410743Y-105176648D01*
X169471048Y-105031059D01*
X169558601Y-104900027D01*
X169670027Y-104788601D01*
X169801059Y-104701048D01*
X169946648Y-104640743D01*
X170101205Y-104610000D01*
X170258795Y-104610000D01*
X170413352Y-104640743D01*
X170413352Y-104640743D01*
G37*
M02*
